<svg xmlns="http://www.w3.org/2000/svg" viewBox="0 0 600 600"><defs><style>.cls-1{fill:none;}.cls-2{opacity:0.5;}.cls-3{fill:#fff;}</style></defs><g id="レイヤー_2" data-name="レイヤー 2"><g id="レイヤー_1-2" data-name="レイヤー 1"><rect class="cls-1" width="600" height="600"/><g class="cls-2"><path class="cls-3" d="M177.22,294.83a5.55,5.55,0,0,1,5.11-2.88c3.54,0,6.09,3.05,6.09,7.63,0,5.49-3.21,8-6.5,8a5,5,0,0,1-4.5-2.39h-.06v8.18h-2.28V297.11c0-1.95-.05-3.46-.11-4.83H177l.14,2.55Zm.14,6.48a4.22,4.22,0,0,0,4.2,4.44c2.94,0,4.56-2.52,4.56-6.09,0-3.1-1.57-5.84-4.48-5.84-2.55,0-4.28,2.47-4.28,4.63Z"/><path class="cls-3" d="M193,289.67a1.49,1.49,0,0,1-1.49-1.56,1.5,1.5,0,0,1,1.51-1.54,1.55,1.55,0,0,1,0,3.1Zm1.15,17.59h-2.28V292.31h2.28Z"/><path class="cls-3" d="M208.76,306.71a9.53,9.53,0,0,1-4.07.86c-4.28,0-7.1-3.05-7.1-7.63s3-8,7.65-8a8.31,8.31,0,0,1,3.6.79l-.58,1.84a6.14,6.14,0,0,0-3.07-.76c-3.46,0-5.27,2.77-5.27,6,0,3.62,2.17,5.9,5.19,5.9a7.45,7.45,0,0,0,3.23-.74Z"/><path class="cls-3" d="M212.54,289.59l2.25-.77v3.49h3.87v1.78h-3.87v8.64c0,1.9.58,2.94,2,2.94a4.37,4.37,0,0,0,1.54-.22l.14,1.76a5.74,5.74,0,0,1-2.22.36c-3.63,0-3.74-3.3-3.74-4.89v-8.59h-2.3v-1.78h2.3Z"/><path class="cls-3" d="M233.37,303.28c0,1.54.08,2.83.14,4h-2.06l-.11-2.36h-.08a5.43,5.43,0,0,1-4.78,2.69c-2.25,0-4.91-1.29-4.91-6.45v-8.83h2.28v8.42c0,2.91.85,4.94,3.35,4.94a4,4,0,0,0,3.89-4.06v-9.3h2.28Z"/><path class="cls-3" d="M244.71,294.23a6.44,6.44,0,0,0-.83-.06c-2.47,0-3.73,2.44-3.73,5v8.12h-2.28V296.78c0-1.59,0-3-.11-4.47h2l.1,2.88H240A4.47,4.47,0,0,1,244,292a5.4,5.4,0,0,1,.69.08Z"/><path class="cls-3" d="M258,306.63a10.83,10.83,0,0,1-4.69.94c-4.37,0-7-3.08-7-7.55,0-4.7,2.63-8.07,6.67-8.07,4.61,0,5.79,4.23,5.79,6.83,0,.52,0,.91-.06,1.26H248.52c0,4.15,2.39,5.71,5.08,5.71a9.53,9.53,0,0,0,3.92-.76Zm-1.45-8.29c0-2-.83-4.66-3.76-4.66-2.75,0-4,2.61-4.18,4.66Z"/><path class="cls-3" d="M270.88,294.72a5.33,5.33,0,0,1,5-2.77c3.54,0,6,3.05,6,7.66,0,5.43-3.32,8-6.42,8a5.11,5.11,0,0,1-4.83-2.8h-.09l-.13,2.47h-2c.06-1,.11-2.49.11-3.7V285.31h2.28v9.41Zm-.05,6.7a4.22,4.22,0,0,0,4.2,4.31c2.91,0,4.53-2.5,4.53-6,0-3.13-1.54-5.87-4.45-5.87a4.53,4.53,0,0,0-4.28,4.63Z"/><path class="cls-3" d="M296.6,292.31l-4,10.59c-1.79,4.86-3.05,7.66-4.91,9.41a7.54,7.54,0,0,1-3,1.76l-.63-1.92a8.56,8.56,0,0,0,4.83-5.38,1.92,1.92,0,0,0-.17-.63l-5.29-13.83h2.49l3.27,9.08c.39,1,.71,2.22,1,3.13h.08c.25-.91.61-2,1-3.19l3-9Z"/><path class="cls-3" d="M305.6,286.35h2.28v20.91H305.6Z"/><path class="cls-3" d="M324.45,307.26h-2.28v-8.83c0-2.45-.87-4.59-3.48-4.59a4.08,4.08,0,0,0-3.93,4.26v9.16h-2.27V296.15c0-1.54-.06-2.66-.11-3.87h2l.13,2.44h.06a5.34,5.34,0,0,1,4.8-2.77c1.87,0,5.05,1.12,5.05,6.2Z"/><path class="cls-3" d="M335.87,294.58a5.44,5.44,0,0,0-2.91-.87,2.25,2.25,0,0,0-2.53,2.22c0,1.29.85,1.89,2.78,2.72,2.41,1,3.81,2.25,3.81,4.5,0,2.66-2,4.42-5.3,4.42a7.93,7.93,0,0,1-3.92-1l.63-1.76a7.1,7.1,0,0,0,3.38,1c2,0,3-1.07,3-2.42s-.8-2.16-2.77-3c-2.53-1-3.82-2.42-3.82-4.23,0-2.33,1.87-4.25,4.89-4.25a6.69,6.69,0,0,1,3.43.9Z"/><path class="cls-3" d="M341.11,289.59l2.25-.77v3.49h3.87v1.78h-3.87v8.64c0,1.9.58,2.94,2,2.94a4.41,4.41,0,0,0,1.54-.22l.13,1.76a5.71,5.71,0,0,1-2.22.36c-3.62,0-3.73-3.3-3.73-4.89v-8.59H338.8v-1.78h2.31Z"/><path class="cls-3" d="M360,303.7a20.08,20.08,0,0,0,.22,3.56h-2.09l-.22-1.92h-.08a5.21,5.21,0,0,1-4.42,2.25,4.14,4.14,0,0,1-4.36-4.25c0-3.6,3.12-5.55,8.67-5.52,0-1.26,0-4.11-3.4-4.11a6.41,6.41,0,0,0-3.65,1.07l-.55-1.57a8.53,8.53,0,0,1,4.55-1.26c4.23,0,5.33,3,5.33,5.95Zm-2.25-4.2c-2.83,0-6.37.41-6.37,3.56a2.49,2.49,0,0,0,2.58,2.78,3.67,3.67,0,0,0,3.79-3.52Z"/><path class="cls-3" d="M376.57,292.28c-.09,1.07-.14,2.28-.14,4.11v8.73c0,2.61-.06,8.59-7.14,8.59a8.92,8.92,0,0,1-4.69-1.18l.6-1.78a8.21,8.21,0,0,0,4.2,1.12c2.75,0,4.75-1.45,4.75-5.4v-1.79h0a5.13,5.13,0,0,1-4.64,2.56c-3.57,0-6.12-3.16-6.12-7.36,0-5.19,3.23-7.93,6.47-7.93a4.8,4.8,0,0,1,4.53,2.58h.06l.11-2.25ZM374.12,298a4,4,0,0,0-4-4.25c-2.63,0-4.47,2.33-4.47,5.95,0,3.19,1.54,5.68,4.45,5.68a4.09,4.09,0,0,0,4-4.39Z"/><path class="cls-3" d="M387.76,294.23a6.28,6.28,0,0,0-.82-.06c-2.47,0-3.73,2.44-3.73,5v8.12h-2.28V296.78c0-1.59,0-3-.11-4.47h2l.11,2.88H383a4.48,4.48,0,0,1,4.06-3.21,5.4,5.4,0,0,1,.69.08Z"/><path class="cls-3" d="M400.22,303.7a21.07,21.07,0,0,0,.22,3.56h-2.09l-.22-1.92h-.08a5.2,5.2,0,0,1-4.42,2.25,4.14,4.14,0,0,1-4.36-4.25c0-3.6,3.13-5.55,8.67-5.52,0-1.26,0-4.11-3.4-4.11a6.41,6.41,0,0,0-3.65,1.07l-.55-1.57A8.57,8.57,0,0,1,394.9,292c4.22,0,5.32,3,5.32,5.95ZM398,299.5c-2.83,0-6.37.41-6.37,3.56a2.49,2.49,0,0,0,2.58,2.78,3.67,3.67,0,0,0,3.79-3.52Z"/><path class="cls-3" d="M425,307.26h-2.25v-8.64c0-2.91-1-4.78-3.29-4.78a3.81,3.81,0,0,0-3.51,4v9.41h-2.25V298c0-2.39-1-4.2-3.13-4.2-2,0-3.68,1.92-3.68,4.26v9.16h-2.25V296.15c0-1.54-.05-2.64-.11-3.87h2l.14,2.41h.08a5,5,0,0,1,4.56-2.74,4.28,4.28,0,0,1,4.09,3h.05a5.25,5.25,0,0,1,4.81-3c1.83,0,4.74,1.18,4.74,6.31Z"/></g></g></g></svg>